<svg width="94" height="30" viewBox="0 0 94 30" fill="none" xmlns="http://www.w3.org/2000/svg">
<g clip-path="url(#clip0_810_1936)">
<path fill-rule="evenodd" clip-rule="evenodd" d="M24.5176 15.2301C24.3959 21.0118 19.6995 25.661 13.9236 25.661C9.82206 25.661 6.26477 23.3164 4.50355 19.8868L6.06185 18.9549L4.52777 18.0376L0.0230635 15.3575L0.0230638 16.8065L0.0230635 20.6171L0.0230634 22.5659L1.56068 21.6464C3.92165 26.0825 8.57242 29.1 13.9236 29.1C20.9181 29.1 26.7158 23.9448 27.7679 17.205L24.5176 15.2301ZM3.32731 15C3.32731 15.1235 3.32939 15.2464 3.33352 15.3687L0 13.3855C0.79618 6.35863 6.72633 0.900024 13.9236 0.900024C19.2026 0.900024 23.8 3.83661 26.1898 8.17469L27.1406 7.60611V9.15366V10.2997V14.8546L23.3742 12.5661L23.3699 12.5733L21.1018 11.2171L23.2491 9.93311C21.7158 7.08282 18.9293 5.01481 15.6327 4.477V8.12198H16.0315C18.3284 8.12198 20.1903 9.99528 20.1903 12.3061C20.1903 13.0133 20.016 13.6796 19.7081 14.2638C20.6944 15.0288 21.3297 16.2294 21.3297 17.5793C21.3297 19.8901 19.4678 21.7635 17.1709 21.7635H15.6327V23.8269C15.329 23.9033 14.5845 24.0561 14.0376 24.0561C13.4906 24.0561 12.5944 23.9033 12.2145 23.8269V21.7635H7.31521V16.4902V13.3951V8.12198H12.2145V4.477C7.17502 5.29917 3.32731 9.69755 3.32731 15ZM15.8606 11.4464H10.7334V13.2805H15.8606C16.3641 13.2805 16.7721 12.8699 16.7721 12.3635C16.7721 11.857 16.3641 11.4464 15.8606 11.4464ZM10.7334 16.6049H17C17.5035 16.6049 17.9115 17.0155 17.9115 17.522C17.9115 18.0285 17.5035 18.439 17 18.439H10.7334V16.6049Z" fill="#3B75F3"/>
<path d="M35.36 13.7242C35.4503 13.6169 35.4954 13.4889 35.4954 13.3404C35.4954 13.1918 35.4503 13.0598 35.36 12.9442C35.278 12.8204 35.1549 12.7585 34.9909 12.7585H33.9572V13.8851H34.9909C35.1549 13.8851 35.278 13.8315 35.36 13.7242ZM33.9572 15.9527V17.166H35.1016C35.2903 17.166 35.4298 17.104 35.52 16.9803C35.6185 16.8482 35.6677 16.7037 35.6677 16.5469V16.5345C35.6677 16.3777 35.6143 16.2416 35.5077 16.126C35.4092 16.0105 35.2739 15.9527 35.1016 15.9527H33.9572ZM35.4216 19.2954H31.2131C31.1229 19.2954 31.0449 19.2624 30.9793 19.1964C30.9136 19.1303 30.8809 19.0519 30.8809 18.9611V10.9633C30.8809 10.8725 30.9136 10.7941 30.9793 10.7281C31.0449 10.6621 31.1229 10.6291 31.2131 10.6291H35.2985C36.4634 10.6291 37.3207 10.8436 37.8703 11.2729C38.4282 11.6938 38.7071 12.3334 38.7071 13.1918V13.229C38.7071 13.5839 38.6046 13.9017 38.3995 14.1823C38.1944 14.4546 37.9688 14.6527 37.7227 14.7765C38.0508 14.9086 38.3257 15.1438 38.5471 15.4822C38.7769 15.8124 38.8917 16.1755 38.8917 16.5717C38.8917 18.3875 37.735 19.2954 35.4216 19.2954ZM43.0246 19.2954H40.5143C40.4241 19.2954 40.3461 19.2624 40.2805 19.1964C40.2149 19.1303 40.182 19.0519 40.182 18.9611V10.9633C40.182 10.8725 40.2149 10.7941 40.2805 10.7281C40.3461 10.6621 40.4241 10.6291 40.5143 10.6291H43.0246C43.1148 10.6291 43.1928 10.6621 43.2584 10.7281C43.3241 10.7941 43.3569 10.8725 43.3569 10.9633V18.9611C43.3569 19.0519 43.3241 19.1303 43.2584 19.1964C43.1928 19.2624 43.1148 19.2954 43.0246 19.2954ZM44.8544 10.6291H52.0654C52.1556 10.6291 52.2335 10.6621 52.2991 10.7281C52.3648 10.7941 52.3976 10.8725 52.3976 10.9633V12.9566C52.3976 13.0474 52.3648 13.1258 52.2991 13.1918C52.2335 13.2579 52.1556 13.2908 52.0654 13.2908H50.0226V18.9611C50.0226 19.0519 49.9899 19.1303 49.9242 19.1964C49.8586 19.2624 49.7806 19.2954 49.6904 19.2954H47.2293C47.1391 19.2954 47.0611 19.2624 46.9955 19.1964C46.9299 19.1303 46.8971 19.0519 46.8971 18.9611V13.2908H44.8544C44.7642 13.2908 44.6862 13.2579 44.6206 13.1918C44.5549 13.1258 44.5221 13.0474 44.5221 12.9566V10.9633C44.5221 10.8725 44.5549 10.7941 44.6206 10.7281C44.6862 10.6621 44.7642 10.6291 44.8544 10.6291ZM54.4427 11.4214C55.1975 10.8106 56.1942 10.5052 57.4329 10.5052C58.6717 10.5052 59.6643 10.8148 60.4108 11.4338C61.1656 12.0446 61.543 12.9071 61.543 14.0213V15.9527C61.543 17.0834 61.1697 17.9459 60.4232 18.5402C59.6848 19.1262 58.6881 19.4192 57.4329 19.4192C56.1778 19.4192 55.1769 19.1262 54.4304 18.5402C53.6921 17.9459 53.3229 17.0834 53.3229 15.9527V14.0213C53.3229 12.8988 53.6962 12.0322 54.4427 11.4214ZM56.7685 16.7574C56.9325 16.9225 57.154 17.005 57.4329 17.005C57.7118 17.005 57.9334 16.9225 58.0974 16.7574C58.2615 16.5923 58.3435 16.3406 58.3435 16.0022V13.9223C58.3435 13.5921 58.2615 13.3445 58.0974 13.1794C57.9334 13.0061 57.7118 12.9195 57.4329 12.9195C57.154 12.9195 56.9325 13.0061 56.7685 13.1794C56.6043 13.3445 56.5223 13.5921 56.5223 13.9223V16.0022C56.5223 16.3406 56.6043 16.5923 56.7685 16.7574ZM70.9541 18.8869C70.9791 18.9281 70.991 18.9818 70.991 19.0478C70.991 19.1056 70.9628 19.1633 70.9052 19.2211C70.8557 19.2706 70.7943 19.2954 70.7203 19.2954H67.9147C67.6772 19.2954 67.5087 19.2005 67.4103 19.0107L65.9094 16.3117V18.9611C65.9094 19.0519 65.8762 19.1303 65.8104 19.1964C65.7452 19.2624 65.6669 19.2954 65.5766 19.2954H63.2266C63.1364 19.2954 63.0581 19.2624 62.9929 19.1964C62.9271 19.1303 62.8945 19.0519 62.8945 18.9611V10.9633C62.8945 10.8725 62.9271 10.7941 62.9929 10.7281C63.0581 10.6621 63.1364 10.6291 63.2266 10.6291H65.5766C65.6669 10.6291 65.7452 10.6621 65.8104 10.7281C65.8762 10.7941 65.9094 10.8725 65.9094 10.9633V13.4147L67.2993 10.9014C67.3896 10.7199 67.5538 10.6291 67.7919 10.6291H70.5116C70.585 10.6291 70.647 10.658 70.6959 10.7157C70.7535 10.7653 70.7824 10.823 70.7824 10.8891C70.7824 10.9468 70.7698 10.9964 70.7454 11.0376L68.5301 14.7765L70.9541 18.8869ZM72.1898 16.4727H74.3312C74.4214 16.4727 74.4991 16.5056 74.5649 16.5717C74.6301 16.6377 74.6633 16.7161 74.6633 16.8069V18.9611C74.6633 19.0519 74.6301 19.1303 74.5649 19.1964C74.4991 19.2624 74.4214 19.2954 74.3312 19.2954H72.1898C72.0996 19.2954 72.0219 19.2624 71.9561 19.1964C71.8903 19.1303 71.8577 19.0519 71.8577 18.9611V16.8069C71.8577 16.7161 71.8903 16.6377 71.9561 16.5717C72.0219 16.5056 72.0996 16.4727 72.1898 16.4727ZM84.257 18.8869C84.282 18.9281 84.2939 18.9818 84.2939 19.0478C84.2939 19.1056 84.2657 19.1633 84.2081 19.2211C84.1586 19.2706 84.0971 19.2954 84.0232 19.2954H81.2176C80.9801 19.2954 80.8115 19.2005 80.7132 19.0107L79.2123 16.3117V18.9611C79.2123 19.0519 79.1791 19.1303 79.1133 19.1964C79.0481 19.2624 78.9698 19.2954 78.8795 19.2954H76.5295C76.4393 19.2954 76.3609 19.2624 76.2958 19.1964C76.23 19.1303 76.1974 19.0519 76.1974 18.9611V10.9633C76.1974 10.8725 76.23 10.7941 76.2958 10.7281C76.3609 10.6621 76.4393 10.6291 76.5295 10.6291H78.8795C78.9698 10.6291 79.0481 10.6621 79.1133 10.7281C79.1791 10.7941 79.2123 10.8725 79.2123 10.9633V13.4147L80.6022 10.9014C80.6925 10.7199 80.8567 10.6291 81.0948 10.6291H83.8145C83.8878 10.6291 83.9499 10.658 83.9988 10.7157C84.0564 10.7653 84.0852 10.823 84.0852 10.8891C84.0852 10.9468 84.0727 10.9964 84.0483 11.0376L81.833 14.7765L84.257 18.8869ZM89.6394 14.0709H93.0234C93.1136 14.0709 93.192 14.1039 93.2571 14.1699C93.3229 14.2359 93.3561 14.3143 93.3561 14.4051V16.0146C93.3561 17.104 92.9701 17.9459 92.1993 18.5402C91.4279 19.1262 90.3983 19.4192 89.1105 19.4192C87.8308 19.4192 86.8219 19.1344 86.0831 18.5649C85.3448 17.9872 84.9757 17.1247 84.9757 15.9774V13.8975C84.9757 12.7998 85.353 11.962 86.1081 11.3843C86.8626 10.7983 87.8678 10.5052 89.123 10.5052C90.3864 10.5052 91.4072 10.7735 92.1868 11.31C92.9664 11.8382 93.3561 12.4903 93.3561 13.2661C93.3561 13.3404 93.3273 13.4064 93.2697 13.4642C93.2208 13.5137 93.1587 13.5385 93.0854 13.5385H90.3657C90.2015 13.5385 90.0824 13.4931 90.0085 13.4023C89.8449 13.1877 89.7215 13.0639 89.6394 13.0309C89.4508 12.9566 89.2784 12.9195 89.123 12.9195C88.4913 12.9195 88.1755 13.229 88.1755 13.848V15.9527C88.1755 16.6542 88.5114 17.005 89.1844 17.005C89.8731 17.005 90.2178 16.7079 90.2178 16.1136H89.6394C89.5491 16.1136 89.4714 16.0806 89.4056 16.0146C89.3405 15.9485 89.3073 15.8701 89.3073 15.7793V14.4051C89.3073 14.3143 89.3405 14.2359 89.4056 14.1699C89.4714 14.1039 89.5491 14.0709 89.6394 14.0709Z" fill="#1C1C1C"/>
</g>
<defs>
<clipPath id="clip0_810_1936">
<rect width="94" height="28.2" fill="white" transform="translate(0 0.900024)"/>
</clipPath>
</defs>
</svg>
